# xmcd CD database file
#
# Track frame offsets:
#	150
#	12782
#	25847
#	39862
#	53787
#	66525
#	77532
#	92350
#	107790
#	122817
#
# Disc length: 1784 seconds
#
# Revision: 2
# Processed by: cddbd v1.5.2PL0 Copyright (c) Steve Scherf et al.
# Submitted via: CDex 1.50
#
DISCID=7206f60a
DTITLE=Various Artist - Country's Greatest Hits 80's
DYEAR=1997
DGENRE=Country
TTITLE0=Exile - Give Me One More Chance
TTITLE1=Janie Fricke - Your Heart's Not In It
TTITLE2=Ricky Van Shelton - I'll Leave This World Loving You
TTITLE3=Ronnie McDowell - You're Gonna Ruin My Bad Reputation
TTITLE4=O'Kanes - Can't Stop My Heart From Loving You
TTITLE5=Vern Gosdin - Set 'Em Up Joe
TTITLE6=George Jones - He Stopped Loving Het Today
TTITLE7=Merle Haggard - Twinkle Twinkle Little Star
TTITLE8=Micky Gilley - Feel For Your Love
TTITLE9=Rodney Crowell - Above And Beyond
EXTD=YEAR: 1997
EXTT0=
EXTT1=
EXTT2=
EXTT3=
EXTT4=
EXTT5=
EXTT6=
EXTT7=
EXTT8=
EXTT9=
PLAYORDER=
